<svg version="1.1" id="Layer_1" xmlns="http://www.w3.org/2000/svg" xmlns:xlink="http://www.w3.org/1999/xlink" x="0px" y="0px"
	 width="100%" viewBox="0 0 180 180" enable-background="new 0 0 180 180" xml:space="preserve">
<path fill="#031B35" opacity="1.000000" stroke="none" 
	d="
M1.000000,119.000000 
	C1.000000,100.645775 1.000000,82.291542 1.349552,63.414139 
	C3.497036,59.054501 5.236318,55.189266 7.102470,51.386280 
	C18.733040,27.684679 37.470654,12.142724 62.173355,3.431069 
	C63.858444,2.836808 65.394585,1.820192 67.000000,1.000000 
	C83.020897,1.000000 99.041786,1.000000 115.595062,1.356428 
	C116.456535,2.067324 116.719490,2.600354 117.124329,2.750281 
	C128.792786,7.071532 140.352570,11.453288 149.944519,19.899628 
	C161.393280,29.981016 171.244583,41.077812 176.510040,55.729706 
	C177.452515,58.352295 179.475769,60.586479 181.000000,63.000000 
	C181.000000,81.354225 181.000000,99.708458 180.650452,118.585861 
	C178.502975,122.945488 176.763672,126.810707 174.897537,130.613678 
	C163.266983,154.315323 144.529373,169.857254 119.826660,178.568924 
	C118.141563,179.163193 116.605423,180.179810 115.000000,181.000000 
	C99.312439,181.000000 83.624878,181.000000 67.398331,180.636581 
	C66.665894,180.011353 66.523720,179.592621 66.271637,179.510254 
	C54.114101,175.537659 42.387760,170.902344 32.454937,162.352905 
	C20.746731,152.275345 10.848656,141.054230 5.489743,126.266403 
	C4.540155,123.646049 2.523765,121.412285 1.000000,119.000000 
M124.968269,72.917137 
	C125.368065,79.146431 124.114365,85.067711 119.936440,89.732590 
	C109.579346,101.296837 95.918030,106.869576 80.061134,111.162201 
	C85.423035,96.125435 90.360016,82.280304 95.525650,67.793945 
	C87.540855,67.793945 80.238914,67.965721 72.951469,67.715515 
	C69.708595,67.604164 68.313667,68.757553 67.293236,71.767204 
	C61.357430,89.274124 55.170914,106.695976 49.213928,124.195869 
	C48.623348,125.930824 48.460117,128.183701 49.032665,129.881104 
	C52.492165,140.137207 56.214092,150.305008 59.887661,160.488113 
	C60.110477,161.105759 60.671852,161.601273 61.419033,162.623184 
	C65.483467,151.168884 69.426819,140.387665 73.096825,129.514191 
	C74.222054,126.180389 75.956566,124.681152 79.489655,123.678307 
	C93.074699,119.822281 106.822876,116.197464 119.881104,110.927551 
	C132.422531,105.866203 143.548172,98.207069 151.635178,86.694473 
	C162.745590,70.877769 155.852661,50.314018 137.076797,46.096226 
	C129.237091,44.335114 120.882133,44.839867 112.757118,44.393101 
	C110.216782,44.253422 107.662277,44.371338 104.597130,44.371338 
	C105.318970,42.169369 105.728378,40.929134 106.131973,39.687016 
	C106.589020,38.280384 107.040855,36.872055 107.508156,35.423553 
	C98.356407,34.099705 98.206856,34.036785 95.059174,41.518234 
	C93.609528,44.963764 91.453369,44.718731 88.451653,43.815933 
	C89.457802,40.893192 90.401718,38.151230 91.376015,35.321037 
	C82.151756,34.342960 82.287697,34.411823 78.488876,41.910816 
	C77.844879,43.182106 75.476906,44.237881 73.885544,44.265938 
	C62.558907,44.465656 51.227085,44.361187 39.896973,44.384422 
	C38.177086,44.387947 36.457531,44.551483 34.332527,44.662109 
	C36.059525,49.641537 37.725464,53.820316 38.928680,58.128334 
	C39.765202,61.123421 41.383160,61.895611 44.318886,61.836151 
	C52.979576,61.660744 61.646095,61.772190 70.310333,61.773457 
	C83.306686,61.775356 96.303802,61.694275 109.299133,61.811161 
	C118.242432,61.891598 122.984756,65.141975 124.968269,72.917137 
z"/>
<path fill="#000000" opacity="1.000000" stroke="none" 
	d="
M66.531342,1.000000 
	C65.394585,1.820192 63.858444,2.836808 62.173355,3.431069 
	C37.470654,12.142724 18.733040,27.684679 7.102470,51.386280 
	C5.236318,55.189266 3.497036,59.054501 1.349552,62.945480 
	C1.000000,42.404221 1.000000,21.808437 1.000000,1.000000 
	C22.687098,1.000000 44.374889,1.000000 66.531342,1.000000 
z"/>
<path fill="#000000" opacity="1.000000" stroke="none" 
	d="
M1.000000,119.468658 
	C2.523765,121.412285 4.540155,123.646049 5.489743,126.266403 
	C10.848656,141.054230 20.746731,152.275345 32.454937,162.352905 
	C42.387760,170.902344 54.114101,175.537659 66.271637,179.510254 
	C66.523720,179.592621 66.665894,180.011353 66.929672,180.636581 
	C45.075455,181.000000 23.150913,181.000000 1.000000,181.000000 
	C1.000000,160.646332 1.000000,140.291824 1.000000,119.468658 
z"/>
<path fill="#000000" opacity="1.000000" stroke="none" 
	d="
M115.468658,181.000000 
	C116.605423,180.179810 118.141563,179.163193 119.826660,178.568924 
	C144.529373,169.857254 163.266983,154.315323 174.897537,130.613678 
	C176.763672,126.810707 178.502975,122.945488 180.650452,119.054520 
	C181.000000,139.595779 181.000000,160.191559 181.000000,181.000000 
	C159.312897,181.000000 137.625107,181.000000 115.468658,181.000000 
z"/>
<path fill="#000000" opacity="1.000000" stroke="none" 
	d="
M181.000000,62.531342 
	C179.475769,60.586479 177.452515,58.352295 176.510040,55.729706 
	C171.244583,41.077812 161.393280,29.981016 149.944519,19.899628 
	C140.352570,11.453288 128.792786,7.071532 117.124329,2.750281 
	C116.719490,2.600354 116.456535,2.067324 116.063721,1.356428 
	C137.591766,1.000000 159.183517,1.000000 181.000000,1.000000 
	C181.000000,21.353676 181.000000,41.708179 181.000000,62.531342 
z"/>
<path fill="#F4F4F5" opacity="1.000000" stroke="none" 
	d="
M124.942375,72.497528 
	C122.984756,65.141975 118.242432,61.891598 109.299133,61.811161 
	C96.303802,61.694275 83.306686,61.775356 70.310333,61.773457 
	C61.646095,61.772190 52.979576,61.660744 44.318886,61.836151 
	C41.383160,61.895611 39.765202,61.123421 38.928680,58.128334 
	C37.725464,53.820316 36.059525,49.641537 34.332527,44.662109 
	C36.457531,44.551483 38.177086,44.387947 39.896973,44.384422 
	C51.227085,44.361187 62.558907,44.465656 73.885544,44.265938 
	C75.476906,44.237881 77.844879,43.182106 78.488876,41.910816 
	C82.287697,34.411823 82.151756,34.342960 91.376015,35.321037 
	C90.401718,38.151230 89.457802,40.893192 88.451653,43.815933 
	C91.453369,44.718731 93.609528,44.963764 95.059174,41.518234 
	C98.206856,34.036785 98.356407,34.099705 107.508156,35.423553 
	C107.040855,36.872055 106.589020,38.280384 106.131973,39.687016 
	C105.728378,40.929134 105.318970,42.169369 104.597130,44.371338 
	C107.662277,44.371338 110.216782,44.253422 112.757118,44.393101 
	C120.882133,44.839867 129.237091,44.335114 137.076797,46.096226 
	C155.852661,50.314018 162.745590,70.877769 151.635178,86.694473 
	C143.548172,98.207069 132.422531,105.866203 119.881104,110.927551 
	C106.822876,116.197464 93.074699,119.822281 79.489655,123.678307 
	C75.956566,124.681152 74.222054,126.180389 73.096825,129.514191 
	C69.426819,140.387665 65.483467,151.168884 61.419033,162.623184 
	C60.671852,161.601273 60.110477,161.105759 59.887661,160.488113 
	C56.214092,150.305008 52.492165,140.137207 49.032665,129.881104 
	C48.460117,128.183701 48.623348,125.930824 49.213928,124.195869 
	C55.170914,106.695976 61.357430,89.274124 67.293236,71.767204 
	C68.313667,68.757553 69.708595,67.604164 72.951469,67.715515 
	C80.238914,67.965721 87.540855,67.793945 95.525650,67.793945 
	C90.360016,82.280304 85.423035,96.125435 80.061134,111.162201 
	C95.918030,106.869576 109.579346,101.296837 119.936440,89.732590 
	C124.114365,85.067711 125.368065,79.146431 124.942375,72.497528 
z"/>
</svg>